<?xml version="1.0" encoding="utf-8"?>
<svg id="master-artboard" viewBox="0 0 335.99 235.19" xmlns="http://www.w3.org/2000/svg" width="335.989990234375px" height="235.19000244140625px"><defs><radialGradient id="Névtelen_színátmenet_35" cx="203.13" cy="57.95" r="17.56" gradientTransform="translate(2.15 -27.21) rotate(1.49) scale(1 1.38)" gradientUnits="userSpaceOnUse"><stop offset="0" stop-color="#fce1d3"/><stop offset="0.52" stop-color="#fbdfd1"/><stop offset="0.71" stop-color="#f8d9ca"/><stop offset="0.84" stop-color="#f3cfbf"/><stop offset="0.95" stop-color="#ecc0ae"/><stop offset="1" stop-color="#e7b5a2"/></radialGradient><linearGradient id="Névtelen_színátmenet_40" x1="216.86" y1="54.19" x2="218.69" y2="54.19" gradientUnits="userSpaceOnUse"><stop offset="0" stop-color="#fce1d3"/><stop offset="0.33" stop-color="#fbded0"/><stop offset="0.58" stop-color="#f6d5c6"/><stop offset="0.81" stop-color="#efc7b6"/><stop offset="1" stop-color="#e7b5a2"/></linearGradient><linearGradient id="Névtelen_színátmenet_38" x1="188.11" y1="54.47" x2="190.64" y2="54.47" gradientUnits="userSpaceOnUse"><stop offset="0" stop-color="#fce1d3"/><stop offset="0.29" stop-color="#fadecf"/><stop offset="0.57" stop-color="#f5d3c4"/><stop offset="0.84" stop-color="#edc2b1"/><stop offset="1" stop-color="#e7b5a2"/></linearGradient><linearGradient id="Névtelen_színátmenet_46" x1="204.07" y1="79.01" x2="204.07" y2="69.24" gradientUnits="userSpaceOnUse"><stop offset="0" stop-color="#fce1d3"/><stop offset="0.33" stop-color="#fbded0"/><stop offset="0.59" stop-color="#f7d6c6"/><stop offset="0.81" stop-color="#f0c7b6"/><stop offset="1" stop-color="#e7b5a2"/></linearGradient></defs><title>Artboard 1</title><path d="M 31.54 21.08 H 304.439992 A 11.78 11.78 0 0 1 316.219992 32.86 V 195.600003 A 11.78 11.78 0 0 1 304.439992 207.380003 H 31.54 A 11.78 11.78 0 0 1 19.76 195.600003 V 32.86 A 11.78 11.78 0 0 1 31.54 21.08 Z" class="cls-1" style="fill: rgb(124, 201, 206);"/><path d="M 241.660004 35.450001 H 316.230003 V 75.93 H 241.660004 V 35.450001 Z" class="cls-2" style="fill: rgb(46, 40, 104); opacity: 0.2;"/><path d="M 241.660004 81.209999 H 316.230003 V 121.689999 H 241.660004 V 81.209999 Z" class="cls-2" style="fill: rgb(46, 40, 104); opacity: 0.2;"/><path d="M 241.660004 126.970001 H 316.230003 V 167.450001 H 241.660004 V 126.970001 Z" class="cls-2" style="fill: rgb(46, 40, 104); opacity: 0.2;"/><path class="cls-2" d="M241.66,207.38h62.78a11.81,11.81,0,0,0,11.78-11.77V172.73H241.66Z" style="fill: rgb(46, 40, 104); opacity: 0.2;"/><path class="cls-3" d="M251.87,73.4H233.73a7.4,7.4,0,0,0-7.29,6.14L214.94,141a7.39,7.39,0,0,1-7.29,6.13H183.49a7.4,7.4,0,0,0-7.4,7.4h0a7.4,7.4,0,0,0,7.4,7.4H239.3a7.4,7.4,0,0,0,7.31-6.26L259.18,82A7.41,7.41,0,0,0,251.87,73.4Z" style="fill: rgb(255, 255, 255);"/><path class="cls-4" d="M213.42,151.08H231a7.42,7.42,0,0,0,7.32-6.26l10-58.84" style="fill: none; stroke-linecap: round; stroke-linejoin: round; stroke: rgb(201, 204, 204); stroke-width: 1.02px;"/><path d="M 221.69000244140625 161.9499969482422 L 219.44000244140625 161.9499969482422 L 219.44000244140625 174.52000427246094 L 227.97000122070312 174.52000427246094 L 227.97000122070312 161.9499969482422 L 221.69000244140625 161.9499969482422 Z" class="cls-5" style="fill: rgb(201, 204, 204);"/><path class="cls-6" d="M223.1,74.91a4.59,4.59,0,0,0-1-.28l-11.6-2.31v.91A5.75,5.75,0,0,1,205,79H203.1a5.72,5.72,0,0,1-5.47-5.46l-10.15,2.94a7.85,7.85,0,0,0-4.39,4,55.83,55.83,0,0,0-3.3,10.32c-3,12.54-8,27.5-8,27.5H146.92v13.79h25.59a12.47,12.47,0,0,0,6.52-1.6v1.35h2.52l-.24,4.77,38.49.18-.07-11.28c7.74-.21,7.75-9,7.75-9s3-16.42,3-28.46C230.47,78.66,225,75.65,223.1,74.91Z" style="fill: rgb(139, 173, 220);"/><path d="M 179.8699951171875 125.38999938964844 L 219.72999572753906 125.38999938964844 L 219.72999572753906 131.30999755859375 L 179.8699951171875 125.38999938964844 Z" class="cls-2" style="fill: rgb(46, 40, 104); opacity: 0.2;"/><g class="cls-7" style="opacity: 0.2;"><path class="cls-8" d="M145.07,34.23h-108v108h108Zm-5.58,102.43H42.64V39.82h96.85Z" style="fill: rgb(46, 40, 104); fill-rule: evenodd;"/><path d="M 43.59 40.84 H 138.679996 V 43.88 H 43.59 V 40.84 Z" class="cls-9" style="fill: rgb(46, 40, 104);"/><path d="M 158.379997 46.259998 A 67.239998 2.15 0 0 1 91.139999 48.409998 A 67.239998 2.15 0 0 1 23.900002 46.259998 A 67.239998 2.15 0 0 1 91.139999 44.109998 A 67.239998 2.15 0 0 1 158.379997 46.259998 Z" class="cls-9" style="fill: rgb(46, 40, 104);"/><path d="M 158.379997 50.16 A 67.239998 2.15 0 0 1 91.139999 52.31 A 67.239998 2.15 0 0 1 23.900002 50.16 A 67.239998 2.15 0 0 1 91.139999 48.01 A 67.239998 2.15 0 0 1 158.379997 50.16 Z" class="cls-9" style="fill: rgb(46, 40, 104);"/><path class="cls-8" d="M43.59,55.58h95.1v-3H43.59Z" style="fill: rgb(46, 40, 104); fill-rule: evenodd;"/><path d="M 43.59 56.439999 H 138.679996 V 59.479999 H 43.59 V 56.439999 Z" class="cls-9" style="fill: rgb(46, 40, 104);"/><path d="M 43.59 60.310001 H 138.679996 V 63.350001 H 43.59 V 60.310001 Z" class="cls-9" style="fill: rgb(46, 40, 104);"/><path d="M 158.379997 65.730003 A 67.239998 2.15 0 0 1 91.139999 67.880003 A 67.239998 2.15 0 0 1 23.900002 65.730003 A 67.239998 2.15 0 0 1 91.139999 63.580003 A 67.239998 2.15 0 0 1 158.379997 65.730003 Z" class="cls-9" style="fill: rgb(46, 40, 104);"/><path d="M 158.379997 69.629997 A 67.239998 2.15 0 0 1 91.139999 71.779997 A 67.239998 2.15 0 0 1 23.900002 69.629997 A 67.239998 2.15 0 0 1 91.139999 67.479997 A 67.239998 2.15 0 0 1 158.379997 69.629997 Z" class="cls-9" style="fill: rgb(46, 40, 104);"/><path class="cls-8" d="M43.59,75.05h95.1V72H43.59Z" style="fill: rgb(46, 40, 104); fill-rule: evenodd;"/><path d="M 43.59 75.910004 H 138.679996 V 78.950004 H 43.59 V 75.910004 Z" class="cls-9" style="fill: rgb(46, 40, 104);"/></g><path class="cls-10" d="M185.78,136.45s4.29,19.48-11.44,19.48H153.46s5.43,30.1,5.43,59.32H147.16l-12.3-61.09s-5.15-17.71,14-17.71S185.35,136,185.78,136.45Z" style="fill: rgb(91, 197, 242);"/><path class="cls-3" d="M99.46,164.39h-1V148.05c0-.14.69-12.54,15.3-12.54,13.73,0,15.1-4.83,15.11-4.87l1,.24c-.05.23-1.57,5.65-16.09,5.65-5.74,0-9.89,1.94-12.33,5.78a13.26,13.26,0,0,0-2,5.76Z" style="fill: rgb(255, 255, 255);"/><path d="M 54.959999084472656 165.25 L 54.959999084472656 164.2100067138672 L 36.959999084472656 164.3300018310547 L 36.959999084472656 173.19000244140625 L 46.58000183105469 173.19000244140625 L 46.58000183105469 180 L 36.959999084472656 180 L 36.959999084472656 189.0500030517578 L 54.959999084472656 189.0500030517578 L 54.959999084472656 187.94000244140625 L 37.77000045776367 187.94000244140625 L 37.77000045776367 181.1199951171875 L 54.959999084472656 181.1199951171875 L 54.959999084472656 180 L 47.70000076293945 180 L 47.70000076293945 173.19000244140625 L 54.959999084472656 173.19000244140625 L 54.959999084472656 172.07000732421875 L 37.77000045776367 172.07000732421875 L 37.77000045776367 165.25 L 54.959999084472656 165.25 Z" class="cls-2" style="fill: rgb(46, 40, 104); opacity: 0.2;"/><path d="M 146.02999877929688 57.790000915527344 L 146.02999877929688 58.83000183105469 L 164.02999877929688 58.709999084472656 L 164.02999877929688 49.849998474121094 L 154.39999389648438 49.849998474121094 L 154.39999389648438 43.040000915527344 L 164.02999877929688 43.040000915527344 L 164.02999877929688 33.9900016784668 L 146.02999877929688 33.9900016784668 L 146.02999877929688 35.099998474121094 L 163.22000122070312 35.099998474121094 L 163.22000122070312 41.91999816894531 L 146.02999877929688 41.91999816894531 L 146.02999877929688 43.040000915527344 L 153.27999877929688 43.040000915527344 L 153.27999877929688 49.849998474121094 L 146.02999877929688 49.849998474121094 L 146.02999877929688 50.97999954223633 L 163.22000122070312 50.97999954223633 L 163.22000122070312 57.790000915527344 L 146.02999877929688 57.790000915527344 Z" class="cls-2" style="fill: rgb(46, 40, 104); opacity: 0.2;"/><path d="M 50.119999 131.720001 H 194.830006 A 2.5 2.5 0 0 1 197.330006 134.220001 V 134.220001 A 2.5 2.5 0 0 1 194.830006 136.720001 H 50.119999 A 2.5 2.5 0 0 1 47.619999 134.220001 V 134.220001 A 2.5 2.5 0 0 1 50.119999 131.720001 Z" class="cls-11" style="fill: rgb(243, 155, 155);"/><path d="M 59.529999 136.570007 H 65.029999 V 218.490005 H 59.529999 V 136.570007 Z" class="cls-5" style="fill: rgb(183, 208, 212);"/><path d="M 59.52 136.570007 H 65.02 V 142.230007 H 59.52 V 136.570007 Z" class="cls-2" style="fill: rgb(46, 40, 104); opacity: 0.2;"/><path class="cls-9" d="M160.42,128.55l1,3.17h22.48v-3.17Z" style="fill: rgb(46, 40, 104);"/><path class="cls-13" d="M179.87,123.74v-7.31H169.09a14,14,0,0,0-9.42,3.75c-3.72,3.69-8.13,6.85-7.21,8.15,0,0,.53,1,1.91.35a18.74,18.74,0,0,0,3.19-2.65l-1.46,1.46a1.11,1.11,0,0,0,.82,1.89,3.31,3.31,0,0,0,.9-.17c.76-.25,2.54-2,4.22-3.85a5.46,5.46,0,0,0-.62,2.41c0,1.76.83,1.82,1.45,1.79.86,0,1.21-1.18,1.31-2a6.51,6.51,0,0,1,1.15-2.63,9.4,9.4,0,0,1,3.76-3.28,7.36,7.36,0,0,0-3.59,5.85c0,1.64.44,1.94.91,1.94s1.6-.13,1.6-2c0-1.11.84-1.71,2.05-1.71,7.62,0,7.41-1.93,7.41-1.93Z" style="fill: rgb(250, 208, 197);"/><path class="cls-3" d="M108.69,131.72,93.63,91.79s-1.58-3.64,2.06-3.64h47.22s4.12-.8,5.71,4.12,12.83,39.45,12.83,39.45Z" style="fill: rgb(255, 255, 255);"/><path d="M 131.500002 110.68 A 4.81 6.34 0 0 1 126.690002 117.02 A 4.81 6.34 0 0 1 121.880002 110.68 A 4.81 6.34 0 0 1 126.690002 104.34 A 4.81 6.34 0 0 1 131.500002 110.68 Z" class="cls-12" transform="matrix(0.9211855530738831, -0.38912394642829895, 0.38912394642829895, 0.9211855530738831, -32.44235610961914, 57.734710693359375)" style="fill: rgb(231, 236, 237);"/><path class="cls-14" d="M216.88,43.72H203.17c-9.64,0-12.08-3.16-12.55-4h-.09V50.54l0,0v6.4c0,7.88,5.95,14.32,13.23,14.32S217,64.79,217,56.92Z" style="fill-rule: evenodd; fill: rgb(255, 211, 201);"/><g id="_Csoport_" data-name="&lt;Csoport&gt;"><path class="cls-9" d="M202,60.86a2.09,2.09,0,0,1-2.08-2.09V56.21a.26.26,0,0,1,.25-.26.26.26,0,0,1,.26.26v2.56A1.57,1.57,0,0,0,202,60.35a.25.25,0,0,1,.25.25A.26.26,0,0,1,202,60.86Z" style="fill: rgb(46, 40, 104);"/></g><path class="cls-15" d="M216.89,51.42v4.95c0,.2,0,.39,0,.59a3,3,0,0,0,0-5.54Z" style="fill: url('#Névtelen_színátmenet_40');"/><path class="cls-16" d="M190.6,56.72V51.41a3.12,3.12,0,0,0,0,6.12C190.62,57.26,190.6,57,190.6,56.72Z" style="fill: url('#Névtelen_színátmenet_38');"/><path class="cls-17" d="M193.29,52.74h0a1.4,1.4,0,0,1-1.4,1.4h0a1.41,1.41,0,1,0,1.41-1.4Z" style="fill: rgb(85, 69, 150);"/><path class="cls-17" d="M205.89,52.74h0a1.41,1.41,0,0,1-1.41,1.4h0a1.41,1.41,0,1,0,1.41-1.4Z" style="fill: rgb(85, 69, 150);"/><path class="cls-18" d="M193.59,46.67A4.49,4.49,0,0,0,190,48.91" style="fill: none; stroke-linecap: round; stroke-linejoin: round; stroke-width: 1.02px; stroke: rgb(46, 40, 104);"/><path class="cls-18" d="M209.94,46.67a4.49,4.49,0,0,1,3.59,2.24" style="fill: none; stroke-linecap: round; stroke-linejoin: round; stroke-width: 1.02px; stroke: rgb(46, 40, 104);"/><path class="cls-3" d="M202.3,63.78h-.5a14.06,14.06,0,0,1-5.42-1.24,5.18,5.18,0,0,0,1.38,2.12,6.52,6.52,0,0,0,4.18,1.64h.21a6.53,6.53,0,0,0,4.19-1.64,5.16,5.16,0,0,0,1.37-2.12A14,14,0,0,1,202.3,63.78Z" style="fill: rgb(255, 255, 255);"/><path class="cls-9" d="M216.21,31.81a3.18,3.18,0,0,0,1.14-2.64c-2.17,2.23-7.76-1.8-16.12-1.8s-8.74,4.22-8.74,4.22-6.16-.78-6.16,8.14,4.18,11.5,4.18,11.5V39.89s1.59,4.3,12.7,4.3H217v6.57s3.51-2.58,3.51-11.11A9,9,0,0,0,216.21,31.81Z" style="fill: rgb(46, 40, 104);"/><path class="cls-19" d="M208.47,48.29a5.64,5.64,0,0,0-5.62,5.15h-2a5.65,5.65,0,1,0,0,1h2a5.64,5.64,0,1,0,5.62-6.14Zm0,10.3a4.66,4.66,0,1,1,4.66-4.65A4.66,4.66,0,0,1,208.47,58.59Zm-8.61-4.65a4.66,4.66,0,1,1-4.66-4.66A4.66,4.66,0,0,1,199.86,53.94Z" style="fill: rgb(105, 192, 172);"/><path d="M 76.519997 188.490005 H 108.529995 V 218.270006 H 76.519997 V 188.490005 Z" class="cls-5" style="fill: rgb(180, 205, 210);"/><path d="M 74.900002 179.509995 H 110.150002 V 188.489994 H 74.900002 V 179.509995 Z" class="cls-12" style="fill: rgb(231, 236, 237);"/><path d="M 76.519997 188.490005 H 108.529995 V 191.020005 H 76.519997 V 188.490005 Z" class="cls-2" style="fill: rgb(46, 40, 104); opacity: 0.2;"/><path class="cls-20" d="M203.72,71.24a12.77,12.77,0,0,1-6.11-1.58v3.57A5.75,5.75,0,0,0,203.1,79H205a5.75,5.75,0,0,0,5.5-5.78v-4A12.72,12.72,0,0,1,203.72,71.24Z" style="fill: rgb(245, 202, 193);"/><path class="cls-3" d="M179.58,116.13a1.59,1.59,0,0,1,.6-1.3,3,3,0,0,1,1.41-.42l2.86-.45,5.73-.82c3.82-.54,7.65-1,11.47-1.49s7.66-.88,11.5-1.26l.72-.07a1.18,1.18,0,0,0,.53-.17,1.2,1.2,0,0,0,.57-1l.35-2.88c.26-1.91.5-3.83.79-5.74-.07,1.93-.21,3.85-.32,5.78l-.21,2.88a1.84,1.84,0,0,1-.8,1.47,1.79,1.79,0,0,1-.82.31l-.72.11c-3.82.53-7.65,1-11.47,1.48s-7.67.89-11.51,1.27l-5.76.55-2.88.24a2.77,2.77,0,0,0-1.36.28A1.5,1.5,0,0,0,179.58,116.13Z" style="fill: rgb(255, 255, 255);"/><path d="M 219.109998 174.520004 H 228.189998 A 1.69 1.69 0 0 1 229.879998 176.210004 V 190.710003 A 1.69 1.69 0 0 1 228.189998 192.400003 H 219.109998 A 1.69 1.69 0 0 1 217.419998 190.710003 V 176.210004 A 1.69 1.69 0 0 1 219.109998 174.520004 Z" class="cls-9" style="fill: rgb(46, 40, 104);"/><path class="cls-21" d="M190.73,214H178.59v-1.11a6.07,6.07,0,0,1,6.07-6.07h0a6.07,6.07,0,0,1,6.07,6.07Z" style="fill: rgb(200, 200, 205);"/><path class="cls-9" d="M180.4,214a4.42,4.42,0,0,0,8.59,0Z" style="fill: rgb(46, 40, 104);"/><path class="cls-21" d="M229.89,214H217.76v-1.11a6.06,6.06,0,0,1,6.06-6.07h0a6.07,6.07,0,0,1,6.07,6.07Z" style="fill: rgb(200, 200, 205);"/><path class="cls-9" d="M219.57,214a4.41,4.41,0,0,0,8.58,0Z" style="fill: rgb(46, 40, 104);"/><path class="cls-21" d="M268,214H255.87v-1.11a6.07,6.07,0,0,1,6.07-6.07h0a6.07,6.07,0,0,1,6.07,6.07Z" style="fill: rgb(200, 200, 205);"/><path class="cls-5" d="M190.73,214H178.59v-1.11a6.07,6.07,0,0,1,6.07-6.07h0a6.07,6.07,0,0,1,6.07,6.07Z" style="fill: rgb(201, 204, 204);"/><path class="cls-5" d="M229.89,214H217.76v-1.11a6.06,6.06,0,0,1,6.06-6.07h0a6.07,6.07,0,0,1,6.07,6.07Z" style="fill: rgb(201, 204, 204);"/><path class="cls-5" d="M268,214H255.87v-1.11a6.07,6.07,0,0,1,6.07-6.07h0a6.07,6.07,0,0,1,6.07,6.07Z" style="fill: rgb(201, 204, 204);"/><path class="cls-17" d="M247.91,190.82H199.13a16.92,16.92,0,0,0-16.88,16.45,5.94,5.94,0,0,1,5.33.28,11.57,11.57,0,0,1,11.55-11.39h21.24v11.7a6,6,0,0,1,7.06.12V196.16h20.48a11.58,11.58,0,0,1,11.55,11.15,6,6,0,0,1,2.48-.54,5.89,5.89,0,0,1,2.86.75A16.91,16.91,0,0,0,247.91,190.82Z" style="fill: rgb(85, 69, 150);"/><path class="cls-9" d="M257.69,214a4.41,4.41,0,0,0,8.58,0Z" style="fill: rgb(46, 40, 104);"/><path d="M 213.199997 51.380001 H 216.909997 V 52.400001 H 213.199997 V 51.380001 Z" class="cls-19" style="fill: rgb(105, 192, 172);"/><path d="M 50.93 87.330002 H 88.900002 V 131.830002 H 50.93 V 87.330002 Z" class="cls-9" style="fill: rgb(46, 40, 104);"/><path d="M 52.799999 89.25 H 87.040001 V 129.91 H 52.799999 V 89.25 Z" class="cls-3" style="fill: rgb(255, 255, 255);"/><path d="M 53.75 90.20999908447266 L 87.04000091552734 90.20999908447266 L 87.04000091552734 89.25 L 52.79999923706055 89.25 L 52.79999923706055 129.91000366210938 L 53.75 129.91000366210938 L 53.75 90.20999908447266 Z" class="cls-5" style="fill: rgb(201, 204, 204);"/><path d="M 57.630001 93.860001 H 82.200001 V 125.130001 H 57.630001 V 93.860001 Z" class="cls-10" style="fill: rgb(91, 197, 242);"/><path d="M 1.159999966621399 -1.100000023841858 L 1.2200000286102295 -0.6399999856948853 L 1.3200000524520874 -1.0499999523162842 L 2.009999990463257 -3.4800000190734863 L 2.4000000953674316 -3.4800000190734863 L 3.069999933242798 -1.0499999523162842 L 3.1700000762939453 -0.6299999952316284 L 3.240000009536743 -1.100000023841858 L 3.7799999713897705 -3.4800000190734863 L 4.239999771118164 -3.4800000190734863 L 3.4000000953674316 0 L 2.9800000190734863 0 L 2.259999990463257 -2.5399999618530273 L 2.2100000381469727 -2.799999952316284 L 2.1500000953674316 -2.5399999618530273 L 1.409999966621399 0 L 0.9900000095367432 0 L 0.15000000596046448 -3.4800000190734863 L 0.6100000143051147 -3.4800000190734863 L 1.159999966621399 -1.100000023841858 ZM 4.569999694824219 -1.3200000524520874 C 4.569999694824219 -1.5733333826065063 4.619999885559082 -1.7999999523162842 4.71999979019165 -2 C 4.819999694824219 -2.2066667079925537 4.956666469573975 -2.363333225250244 5.130000114440918 -2.4700000286102295 C 5.309999942779541 -2.5833332538604736 5.513333320617676 -2.640000104904175 5.739999771118164 -2.640000104904175 C 6.0933332443237305 -2.640000104904175 6.380000114440918 -2.5166666507720947 6.599999904632568 -2.2699999809265137 C 6.813333511352539 -2.0233333110809326 6.920000076293945 -1.7000000476837158 6.920000076293945 -1.2999999523162842 L 6.920000076293945 -1.2699999809265137 C 6.920000076293945 -1.0166666507720947 6.873332977294922 -0.7900000214576721 6.779999732971191 -0.5899999737739563 C 6.679999828338623 -0.38999998569488525 6.543333053588867 -0.23333333432674408 6.369999885559082 -0.11999999731779099 C 6.190000057220459 -0.006666666828095913 5.983333110809326 0.05000000074505806 5.75 0.05000000074505806 C 5.396666526794434 0.05000000074505806 5.109999656677246 -0.07333333045244217 4.889999866485596 -0.3199999928474426 C 4.676666736602783 -0.5600000023841858 4.569999694824219 -0.8833333253860474 4.569999694824219 -1.2899999618530273 L 4.569999694824219 -1.3200000524520874 M 5.009999752044678 -1.2699999809265137 C 5.009999752044678 -0.9833333492279053 5.076666831970215 -0.75 5.210000038146973 -0.5699999928474426 C 5.3433332443237305 -0.39666667580604553 5.5233330726623535 -0.3100000023841858 5.75 -0.3100000023841858 C 5.96999979019165 -0.3100000023841858 6.146666526794434 -0.4000000059604645 6.279999732971191 -0.5799999833106995 C 6.413332939147949 -0.753333330154419 6.480000019073486 -1 6.480000019073486 -1.3200000524520874 C 6.480000019073486 -1.600000023841858 6.413332939147949 -1.8300000429153442 6.279999732971191 -2.009999990463257 C 6.146666526794434 -2.183333396911621 5.9666666984558105 -2.2699999809265137 5.739999771118164 -2.2699999809265137 C 5.519999980926514 -2.2699999809265137 5.3433332443237305 -2.183333396911621 5.210000038146973 -2.009999990463257 C 5.076666831970215 -1.8366667032241821 5.009999752044678 -1.590000033378601 5.009999752044678 -1.2699999809265137 ZM 8.899999618530273 -2.190000057220459 C 8.833333015441895 -2.2033333778381348 8.760000228881836 -2.2100000381469727 8.680000305175781 -2.2100000381469727 C 8.386666297912598 -2.2100000381469727 8.1899995803833 -2.0866665840148926 8.09000015258789 -1.840000033378601 L 8.09000015258789 0 L 7.639999866485596 0 L 7.639999866485596 -2.5899999141693115 L 8.079999923706055 -2.5899999141693115 L 8.079999923706055 -2.2899999618530273 C 8.226666450500488 -2.5233333110809326 8.433333396911621 -2.640000104904175 8.699999809265137 -2.640000104904175 C 8.786666870117188 -2.640000104904175 8.853333473205566 -2.626666784286499 8.899999618530273 -2.5999999046325684 L 8.899999618530273 -2.190000057220459 ZM 10.319999694824219 -1.2000000476837158 L 10.039999961853027 -0.9100000262260437 L 10.039999961853027 0 L 9.600000381469727 0 L 9.600000381469727 -3.680000066757202 L 10.039999961853027 -3.680000066757202 L 10.039999961853027 -1.4500000476837158 L 10.280000686645508 -1.7400000095367432 L 11.079999923706055 -2.5899999141693115 L 11.619999885559082 -2.5899999141693115 L 10.610000610351562 -1.5099999904632568 L 11.739999771118164 0 L 11.220000267028809 0 L 10.319999694824219 -1.2000000476837158 ZM -0.9099999666213989 8.640000343322754 C -0.9099999666213989 8.519999504089355 -0.9533333778381348 8.426666259765625 -1.0399999618530273 8.359999656677246 C -1.1333333253860474 8.300000190734863 -1.2899999618530273 8.243332862854004 -1.5099999904632568 8.1899995803833 C -1.7366666793823242 8.143333435058594 -1.9166667461395264 8.086666107177734 -2.049999952316284 8.020000457763672 C -2.183333396911621 7.953333377838135 -2.2799999713897705 7.873332977294922 -2.3399999141693115 7.779999732971191 C -2.4000000953674316 7.686666488647461 -2.430000066757202 7.576666831970215 -2.430000066757202 7.449999809265137 C -2.430000066757202 7.236666679382324 -2.3433332443237305 7.056666374206543 -2.1700000762939453 6.909999847412109 C -1.9900000095367432 6.763333320617676 -1.7599999904632568 6.689999580383301 -1.4800000190734863 6.689999580383301 C -1.1866666078567505 6.689999580383301 -0.9466667175292969 6.766666412353516 -0.7599999904632568 6.920000076293945 C -0.5799999237060547 7.073333263397217 -0.49000000953674316 7.266666412353516 -0.49000000953674316 7.5 L -0.9299999475479126 7.5 C -0.9299999475479126 7.380000114440918 -0.9833333492279053 7.276666641235352 -1.090000033378601 7.189999580383301 C -1.190000057220459 7.103333473205566 -1.3200000524520874 7.059999942779541 -1.4800000190734863 7.059999942779541 C -1.6399999856948853 7.059999942779541 -1.7666666507720947 7.0933332443237305 -1.8600000143051147 7.159999847412109 C -1.9466667175292969 7.233333587646484 -1.9900000095367432 7.326666831970215 -1.9900000095367432 7.440000057220459 C -1.9900000095367432 7.546666622161865 -1.9466667175292969 7.62666654586792 -1.8600000143051147 7.679999828338623 C -1.7799999713897705 7.733333110809326 -1.6299999952316284 7.7833333015441895 -1.409999966621399 7.829999923706055 C -1.190000057220459 7.883333206176758 -1.0099999904632568 7.943333148956299 -0.8700000047683716 8.010000228881836 C -0.7300000190734863 8.076666831970215 -0.626666784286499 8.15999984741211 -0.559999942779541 8.260000228881836 C -0.5 8.353333473205566 -0.4700000286102295 8.470000267028809 -0.4700000286102295 8.609999656677246 C -0.4700000286102295 8.84333324432373 -0.559999942779541 9.029999732971191 -0.7400000095367432 9.170000076293945 C -0.9266666173934937 9.309999465942383 -1.1666666269302368 9.380000114440918 -1.4600000381469727 9.380000114440918 C -1.6666666269302368 9.380000114440918 -1.850000023841858 9.34333324432373 -2.009999990463257 9.269999504089355 C -2.1700000762939453 9.196666717529297 -2.2966666221618652 9.09333324432373 -2.3899998664855957 8.960000038146973 C -2.4766666889190674 8.826666831970215 -2.5199999809265137 8.683333396911621 -2.5199999809265137 8.529999732971191 L -2.0799999237060547 8.529999732971191 C -2.073333263397217 8.683333396911621 -2.013333320617676 8.803333282470703 -1.899999976158142 8.890000343322754 C -1.7933332920074463 8.976666450500488 -1.6466666460037231 9.019999504089355 -1.4600000381469727 9.019999504089355 C -1.2933332920074463 9.019999504089355 -1.159999966621399 8.983333587646484 -1.059999942779541 8.90999984741211 C -0.9600000381469727 8.84333324432373 -0.9099999666213989 8.75333309173584 -0.9099999666213989 8.640000343322754 ZM -0.33351635932922363 6.739999771118164 L -0.3235163688659668 7.029999732971191 C -0.13018304109573364 6.803333282470703 0.12648367881774902 6.689999580383301 0.4464836120605469 6.689999580383301 C 0.8064836263656616 6.689999580383301 1.0531504154205322 6.829999923706055 1.18648362159729 7.109999656677246 C 1.2731502056121826 6.983333587646484 1.3864836692810059 6.883333206176758 1.5264835357666016 6.809999942779541 C 1.6598169803619385 6.730000019073486 1.823150396347046 6.689999580383301 2.0164835453033447 6.689999580383301 C 2.5831503868103027 6.689999580383301 2.869817018508911 6.993333339691162 2.876483678817749 7.599999904632568 L 2.876483678817749 9.329999923706055 L 2.43648362159729 9.329999923706055 L 2.43648362159729 7.619999885559082 C 2.43648362159729 7.433333396911621 2.3931503295898438 7.296666622161865 2.306483745574951 7.210000038146973 C 2.2264835834503174 7.116666793823242 2.0864837169647217 7.069999694824219 1.8864836692810059 7.069999694824219 C 1.7198169231414795 7.069999694824219 1.5831503868103027 7.119999885559082 1.4764835834503174 7.220000267028809 C 1.3631503582000732 7.313333511352539 1.2998170852661133 7.443333148956299 1.2864835262298584 7.609999656677246 L 1.2864835262298584 9.329999923706055 L 0.8364835977554321 9.329999923706055 L 0.8364835977554321 7.630000114440918 C 0.8364835977554321 7.256666660308838 0.6531503200531006 7.069999694824219 0.28648364543914795 7.069999694824219 C -0.00018298625946044922 7.069999694824219 -0.19684970378875732 7.193333148956299 -0.3035163879394531 7.440000057220459 L -0.3035163879394531 9.329999923706055 L -0.7535163164138794 9.329999923706055 L -0.7535163164138794 6.739999771118164 L -0.33351635932922363 6.739999771118164 ZM 4.267646312713623 9.329999923706055 C 4.2409796714782715 9.276666641235352 4.220979690551758 9.186666488647461 4.207646369934082 9.059999465942383 C 4.000979900360107 9.273333549499512 3.7543129920959473 9.380000114440918 3.467646598815918 9.380000114440918 C 3.21431303024292 9.380000114440918 3.0076465606689453 9.306666374206543 2.847646474838257 9.15999984741211 C 2.6809797286987305 9.013333320617676 2.597646474838257 8.829999923706055 2.597646474838257 8.609999656677246 C 2.597646474838257 8.34333324432373 2.700979709625244 8.133333206176758 2.907646417617798 7.980000019073486 C 3.1143131256103516 7.8333330154418945 3.400979995727539 7.759999752044678 3.767646312713623 7.759999752044678 L 4.197646617889404 7.759999752044678 L 4.197646617889404 7.559999942779541 C 4.197646617889404 7.4066667556762695 4.154313087463379 7.2833333015441895 4.067646503448486 7.189999580383301 C 3.974313259124756 7.09666633605957 3.837646484375 7.050000190734863 3.657646656036377 7.050000190734863 C 3.4976463317871094 7.050000190734863 3.3643131256103516 7.090000152587891 3.2576465606689453 7.170000076293945 C 3.15097975730896 7.25 3.097646474838257 7.34666633605957 3.097646474838257 7.460000038146973 L 2.647646427154541 7.460000038146973 C 2.647646427154541 7.3333330154418945 2.6943130493164062 7.206666946411133 2.787646532058716 7.079999923706055 C 2.8809797763824463 6.960000038146973 3.0043132305145264 6.866666793823242 3.157646417617798 6.800000190734863 C 3.3176465034484863 6.726666450500488 3.4909796714782715 6.689999580383301 3.6776466369628906 6.689999580383301 C 3.9776463508605957 6.689999580383301 4.21097993850708 6.766666412353516 4.377646446228027 6.920000076293945 C 4.5509796142578125 7.066666603088379 4.640979766845703 7.269999980926514 4.647646427154541 7.529999732971191 L 4.647646427154541 8.720000267028809 C 4.647646427154541 8.960000038146973 4.677646636962891 9.149999618530273 4.737646579742432 9.289999961853027 L 4.737646579742432 9.329999923706055 L 4.267646312713623 9.329999923706055 M 3.537646532058716 8.989999771118164 C 3.6776466369628906 8.989999771118164 3.8076465129852295 8.953332901000977 3.9276466369628906 8.880000114440918 C 4.0543131828308105 8.813333511352539 4.144312858581543 8.723333358764648 4.197646617889404 8.609999656677246 L 4.197646617889404 8.069999694824219 L 3.8576464653015137 8.069999694824219 C 3.3109798431396484 8.069999694824219 3.037646532058716 8.229999542236328 3.037646532058716 8.550000190734863 C 3.037646532058716 8.6899995803833 3.084313154220581 8.800000190734863 3.1776463985443115 8.880000114440918 C 3.270979881286621 8.953332901000977 3.390979766845703 8.989999771118164 3.537646532058716 8.989999771118164 ZM 5.841019630432129 7.139999866485596 C 5.77435302734375 7.12666654586792 5.701019287109375 7.119999885559082 5.62101936340332 7.119999885559082 C 5.327686309814453 7.119999885559082 5.131019592285156 7.243333339691162 5.03101921081543 7.489999771118164 L 5.03101921081543 9.329999923706055 L 4.581019401550293 9.329999923706055 L 4.581019401550293 6.739999771118164 L 5.021019458770752 6.739999771118164 L 5.021019458770752 7.039999961853027 C 5.1676859855651855 6.806666374206543 5.374352931976318 6.689999580383301 5.641019344329834 6.689999580383301 C 5.727685928344727 6.689999580383301 5.7943525314331055 6.703332901000977 5.841019630432129 6.730000019073486 L 5.841019630432129 7.139999866485596 ZM 6.604000568389893 6.109999656677246 L 6.604000568389893 6.739999771118164 L 7.084000587463379 6.739999771118164 L 7.084000587463379 7.079999923706055 L 6.604000568389893 7.079999923706055 L 6.604000568389893 8.6899995803833 C 6.604000568389893 8.789999961853027 6.624000549316406 8.866666793823242 6.664000511169434 8.920000076293945 C 6.704000473022461 8.973333358764648 6.777333736419678 9 6.884000778198242 9 C 6.937334060668945 9 7.007333755493164 8.989999771118164 7.094000339508057 8.970000267028809 L 7.094000339508057 9.329999923706055 C 6.9806671142578125 9.363333702087402 6.867333889007568 9.380000114440918 6.754000663757324 9.380000114440918 C 6.554000377655029 9.380000114440918 6.404000282287598 9.319999694824219 6.304000377655029 9.199999809265137 C 6.204000473022461 9.079999923706055 6.154000282287598 8.90999984741211 6.154000282287598 8.6899995803833 L 6.154000282287598 7.079999923706055 L 5.684000492095947 7.079999923706055 L 5.684000492095947 6.739999771118164 L 6.154000282287598 6.739999771118164 L 6.154000282287598 6.109999656677246 L 6.604000568389893 6.109999656677246 ZM 8.237887382507324 9.380000114440918 C 7.884553909301758 9.380000114440918 7.5978875160217285 9.263333320617676 7.377887725830078 9.029999732971191 C 7.1578874588012695 8.803333282470703 7.047887325286865 8.49666690826416 7.047887325286865 8.109999656677246 L 7.047887325286865 8.029999732971191 C 7.047887325286865 7.769999980926514 7.0978875160217285 7.539999961853027 7.197887420654297 7.340000152587891 C 7.297887325286865 7.139999866485596 7.434554100036621 6.980000019073486 7.607887268066406 6.859999656677246 C 7.7878875732421875 6.74666690826416 7.9778876304626465 6.689999580383301 8.177887916564941 6.689999580383301 C 8.517887115478516 6.689999580383301 8.781221389770508 6.803333282470703 8.967887878417969 7.029999732971191 C 9.15455436706543 7.25 9.24788761138916 7.566666603088379 9.24788761138916 7.980000019073486 L 9.24788761138916 8.15999984741211 L 7.49788761138916 8.15999984741211 C 7.49788761138916 8.420000076293945 7.571220874786377 8.626667022705078 7.7178874015808105 8.779999732971191 C 7.857887268066406 8.9399995803833 8.037887573242188 9.019999504089355 8.257887840270996 9.019999504089355 C 8.417887687683105 9.019999504089355 8.551220893859863 8.986666679382324 8.65788745880127 8.920000076293945 C 8.764554023742676 8.859999656677246 8.861221313476562 8.776666641235352 8.947887420654297 8.670000076293945 L 9.217887878417969 8.880000114440918 C 8.99788761138916 9.213333129882812 8.671220779418945 9.380000114440918 8.237887382507324 9.380000114440918 M 8.177887916564941 7.059999942779541 C 8.00455379486084 7.059999942779541 7.854554176330566 7.123332977294922 7.7278876304626465 7.25 C 7.607887268066406 7.383333206176758 7.5345540046691895 7.566666603088379 7.507887363433838 7.800000190734863 L 8.80788803100586 7.800000190734863 L 8.80788803100586 7.769999980926514 C 8.794553756713867 7.543333053588867 8.731221199035645 7.366666793823242 8.617887496948242 7.239999771118164 C 8.511220932006836 7.119999885559082 8.364554405212402 7.059999942779541 8.177887916564941 7.059999942779541 ZM 10.331260681152344 7.139999866485596 C 10.264594078063965 7.12666654586792 10.19126033782959 7.119999885559082 10.111260414123535 7.119999885559082 C 9.817927360534668 7.119999885559082 9.621260643005371 7.243333339691162 9.521260261535645 7.489999771118164 L 9.521260261535645 9.329999923706055 L 9.071260452270508 9.329999923706055 L 9.071260452270508 6.739999771118164 L 9.511260986328125 6.739999771118164 L 9.511260986328125 7.039999961853027 C 9.657927513122559 6.806666374206543 9.864593505859375 6.689999580383301 10.131260871887207 6.689999580383301 C 10.217926979064941 6.689999580383301 10.28459358215332 6.703332901000977 10.331260681152344 6.730000019073486 L 10.331260681152344 7.139999866485596 ZM 4.329999923706055 9.789999961853027 L 4.349999904632568 10.119999885559082 C 4.543333053588867 9.866666793823242 4.800000190734863 9.739999771118164 5.119999885559082 9.739999771118164 C 5.666666507720947 9.739999771118164 5.943333148956299 10.050000190734863 5.949999809265137 10.670000076293945 L 5.949999809265137 12.380000114440918 L 5.509999752044678 12.380000114440918 L 5.509999752044678 10.670000076293945 C 5.509999752044678 10.483333587646484 5.4666666984558105 10.34333324432373 5.380000114440918 10.25 C 5.293333053588867 10.163333892822266 5.163333415985107 10.119999885559082 4.989999771118164 10.119999885559082 C 4.8433332443237305 10.119999885559082 4.7166666984558105 10.15666675567627 4.609999656677246 10.229999542236328 C 4.50333309173584 10.3100004196167 4.420000076293945 10.413333892822266 4.359999656677246 10.539999961853027 L 4.359999656677246 12.380000114440918 L 3.9099998474121094 12.380000114440918 L 3.9099998474121094 9.789999961853027 L 4.329999923706055 9.789999961853027 ZM 5.13586950302124 11.0600004196167 C 5.13586950302124 10.806666374206543 5.1858696937561035 10.579999923706055 5.285869598388672 10.380000114440918 C 5.38586950302124 10.173333168029785 5.522536277770996 10.016666412353516 5.695869445800781 9.90999984741211 C 5.8758697509765625 9.796667098999023 6.079203128814697 9.739999771118164 6.3058695793151855 9.739999771118164 C 6.659203052520752 9.739999771118164 6.945869445800781 9.863333702087402 7.16586971282959 10.110000610351562 C 7.379202842712402 10.356666564941406 7.485869407653809 10.680000305175781 7.485869407653809 11.079999923706055 L 7.485869407653809 11.110000610351562 C 7.485869407653809 11.363333702087402 7.439203262329102 11.59000015258789 7.345870018005371 11.789999961853027 C 7.2458696365356445 11.989999771118164 7.109203338623047 12.146666526794434 6.9358696937561035 12.260000228881836 C 6.7558698654174805 12.373332977294922 6.549202919006348 12.430000305175781 6.3158698081970215 12.430000305175781 C 5.962536334991455 12.430000305175781 5.675869941711426 12.306666374206543 5.455869674682617 12.0600004196167 C 5.242536544799805 11.819999694824219 5.13586950302124 11.49666690826416 5.13586950302124 11.09000015258789 L 5.13586950302124 11.0600004196167 M 5.575869560241699 11.110000610351562 C 5.575869560241699 11.396666526794434 5.642536163330078 11.630000114440918 5.775869846343994 11.8100004196167 C 5.909203052520752 11.983333587646484 6.089202880859375 12.069999694824219 6.3158698081970215 12.069999694824219 C 6.535869598388672 12.069999694824219 6.712536334991455 11.980000495910645 6.845869541168213 11.800000190734863 C 6.979203224182129 11.626667022705078 7.045869827270508 11.380000114440918 7.045869827270508 11.0600004196167 C 7.045869827270508 10.779999732971191 6.979203224182129 10.550000190734863 6.845869541168213 10.369999885559082 C 6.712536334991455 10.196666717529297 6.532536506652832 10.110000610351562 6.3058695793151855 10.110000610351562 C 6.085869789123535 10.110000610351562 5.909203052520752 10.196666717529297 5.775869846343994 10.369999885559082 C 5.642536163330078 10.543333053588867 5.575869560241699 10.789999961853027 5.575869560241699 11.110000610351562 ZM 7.230000019073486 4.359999656677246 L 7.230000019073486 4.989999771118164 L 7.710000038146973 4.989999771118164 L 7.710000038146973 5.329999923706055 L 7.230000019073486 5.329999923706055 L 7.230000019073486 6.940000057220459 C 7.230000019073486 7.039999961853027 7.25 7.116666793823242 7.289999961853027 7.170000076293945 C 7.329999923706055 7.223333358764648 7.4033331871032715 7.25 7.510000228881836 7.25 C 7.563333511352539 7.25 7.633333206176758 7.239999771118164 7.71999979019165 7.21999979019165 L 7.71999979019165 7.579999923706055 C 7.606666564941406 7.613333225250244 7.493333339691162 7.630000114440918 7.380000114440918 7.630000114440918 C 7.179999828338623 7.630000114440918 7.029999732971191 7.569999694824219 6.929999828338623 7.449999809265137 C 6.829999923706055 7.329999923706055 6.779999732971191 7.159999847412109 6.779999732971191 6.940000057220459 L 6.779999732971191 5.329999923706055 L 6.309999942779541 5.329999923706055 L 6.309999942779541 4.989999771118164 L 6.779999732971191 4.989999771118164 L 6.779999732971191 4.359999656677246 L 7.230000019073486 4.359999656677246 ZM -1.630000114440918 14.670001029968262 C -1.43666672706604 14.430000305175781 -1.183333396911621 14.3100004196167 -0.8700001239776611 14.3100004196167 C -0.3233335018157959 14.3100004196167 -0.046666860580444336 14.620000839233398 -0.040000200271606445 15.24000072479248 L -0.040000200271606445 16.950000762939453 L -0.4800001382827759 16.950000762939453 L -0.4800001382827759 15.24000072479248 C -0.4800001382827759 15.05333423614502 -0.5233334302902222 14.913333892822266 -0.6100001335144043 14.820000648498535 C -0.6966667175292969 14.733333587646484 -0.8266667127609253 14.690000534057617 -1.0000001192092896 14.690000534057617 C -1.1466667652130127 14.690000534057617 -1.2733334302902222 14.726667404174805 -1.380000114440918 14.80000114440918 C -1.4866666793823242 14.880001068115234 -1.570000171661377 14.983333587646484 -1.630000114440918 15.110000610351562 L -1.630000114440918 16.950000762939453 L -2.080000162124634 16.950000762939453 L -2.080000162124634 13.270000457763672 L -1.630000114440918 13.270000457763672 L -1.630000114440918 14.670001029968262 ZM 2.869999885559082 12.149999618530273 C 2.8433332443237305 12.09666633605957 2.823333263397217 12.00666618347168 2.809999942779541 11.879999160766602 C 2.6033332347869873 12.09333324432373 2.3566665649414062 12.199999809265137 2.069999933242798 12.199999809265137 C 1.816666603088379 12.199999809265137 1.6100000143051147 12.126666069030762 1.4500000476837158 11.979999542236328 C 1.2833333015441895 11.833333015441895 1.2000000476837158 11.649999618530273 1.2000000476837158 11.429999351501465 C 1.2000000476837158 11.16333293914795 1.3033332824707031 10.953332901000977 1.5099999904632568 10.799999237060547 C 1.7166666984558105 10.653332710266113 2.003333330154419 10.579999923706055 2.369999885559082 10.579999923706055 L 2.799999952316284 10.579999923706055 L 2.799999952316284 10.379999160766602 C 2.799999952316284 10.226666450500488 2.756666660308838 10.10333251953125 2.6700000762939453 10.00999927520752 C 2.5766665935516357 9.916666030883789 2.440000057220459 9.869999885559082 2.259999990463257 9.869999885559082 C 2.0999999046325684 9.869999885559082 1.9666666984558105 9.90999984741211 1.8600000143051147 9.989999771118164 C 1.753333330154419 10.069999694824219 1.7000000476837158 10.166666030883789 1.7000000476837158 10.279999732971191 L 1.25 10.279999732971191 C 1.25 10.153332710266113 1.2966666221618652 10.026666641235352 1.3899999856948853 9.899999618530273 C 1.4833333492279053 9.779999732971191 1.6066666841506958 9.686666488647461 1.7599999904632568 9.619999885559082 C 1.9200000762939453 9.546666145324707 2.0933332443237305 9.50999927520752 2.2799999713897705 9.50999927520752 C 2.5799999237060547 9.50999927520752 2.81333327293396 9.586666107177734 2.9800000190734863 9.739999771118164 C 3.1533334255218506 9.886666297912598 3.243333339691162 10.09000015258789 3.25 10.34999942779541 L 3.25 11.539999961853027 C 3.25 11.779999732971191 3.2799999713897705 11.969999313354492 3.3400001525878906 12.109999656677246 L 3.3400001525878906 12.149999618530273 L 2.869999885559082 12.149999618530273 M 2.140000104904175 11.809999465942383 C 2.2799999713897705 11.809999465942383 2.4100000858306885 11.773332595825195 2.5299999713897705 11.699999809265137 C 2.6566667556762695 11.633333206176758 2.746666669845581 11.543333053588867 2.799999952316284 11.429999351501465 L 2.799999952316284 10.889999389648438 L 2.4600000381469727 10.889999389648438 C 1.9133334159851074 10.889999389648438 1.6399999856948853 11.049999237060547 1.6399999856948853 11.369999885559082 C 1.6399999856948853 11.50999927520752 1.68666672706604 11.619999885559082 1.7799999713897705 11.699999809265137 C 1.8733333349227905 11.773332595825195 1.993333339691162 11.809999465942383 2.140000104904175 11.809999465942383 ZM 5.369999885559082 9.959999084472656 C 5.303333282470703 9.946666717529297 5.230000019073486 9.9399995803833 5.150000095367432 9.9399995803833 C 4.856666564941406 9.9399995803833 4.659999847412109 10.063333511352539 4.559999942779541 10.309999465942383 L 4.559999942779541 12.149999618530273 L 4.110000133514404 12.149999618530273 L 4.110000133514404 9.559999465942383 L 4.550000190734863 9.559999465942383 L 4.550000190734863 9.859999656677246 C 4.696666717529297 9.626666069030762 4.9033331871032715 9.50999927520752 5.170000076293945 9.50999927520752 C 5.256666660308838 9.50999927520752 5.323333263397217 9.523332595825195 5.369999885559082 9.549999237060547 L 5.369999885559082 9.959999084472656 ZM 6.46999979019165 10.829999923706055 C 6.46999979019165 10.436666488647461 6.563333034515381 10.119999885559082 6.75 9.879999160766602 C 6.936666488647461 9.633333206176758 7.183332920074463 9.50999927520752 7.489999771118164 9.50999927520752 C 7.789999961853027 9.50999927520752 8.029999732971191 9.613332748413086 8.210000038146973 9.819999694824219 L 8.210000038146973 8.469999313354492 L 8.649999618530273 8.469999313354492 L 8.649999618530273 12.149999618530273 L 8.239999771118164 12.149999618530273 L 8.219999313354492 11.869999885559082 C 8.046666145324707 12.089999198913574 7.799999713897705 12.199999809265137 7.479999542236328 12.199999809265137 C 7.179999828338623 12.199999809265137 6.936666488647461 12.076665878295898 6.75 11.829999923706055 C 6.563333034515381 11.583333015441895 6.46999979019165 11.263333320617676 6.46999979019165 10.869999885559082 L 6.46999979019165 10.829999923706055 M 6.909999847412109 10.879999160766602 C 6.909999847412109 11.173333168029785 6.96999979019165 11.403332710266113 7.089999675750732 11.569999694824219 C 7.210000038146973 11.736666679382324 7.37666654586792 11.819999694824219 7.589999675750732 11.819999694824219 C 7.87666654586792 11.819999694824219 8.083333015441895 11.69333267211914 8.210000038146973 11.4399995803833 L 8.210000038146973 10.25999927520752 C 8.076666831970215 10.01333236694336 7.873332977294922 9.889999389648438 7.599999904632568 9.889999389648438 C 7.37999963760376 9.889999389648438 7.210000038146973 9.973333358764648 7.089999675750732 10.139999389648438 C 6.96999979019165 10.306666374206543 6.909999847412109 10.553333282470703 6.909999847412109 10.879999160766602 ZM 10.75 12.199999809265137 C 10.396666526794434 12.199999809265137 10.110000610351562 12.083333015441895 9.890000343322754 11.84999942779541 C 9.670000076293945 11.623332977294922 9.5600004196167 11.316666603088379 9.5600004196167 10.929999351501465 L 9.5600004196167 10.84999942779541 C 9.5600004196167 10.59000015258789 9.610000610351562 10.359999656677246 9.710000038146973 10.15999984741211 C 9.8100004196167 9.959999084472656 9.946666717529297 9.799999237060547 10.119999885559082 9.679999351501465 C 10.300000190734863 9.566666603088379 10.489999771118164 9.50999927520752 10.690000534057617 9.50999927520752 C 11.030000686645508 9.50999927520752 11.293333053588867 9.623332977294922 11.480000495910645 9.84999942779541 C 11.666666984558105 10.069999694824219 11.760000228881836 10.386666297912598 11.760000228881836 10.799999237060547 L 11.760000228881836 10.979999542236328 L 10.010000228881836 10.979999542236328 C 10.010000228881836 11.239999771118164 10.083333969116211 11.446666717529297 10.230000495910645 11.59999942779541 C 10.369999885559082 11.75999927520752 10.550000190734863 11.839999198913574 10.770000457763672 11.839999198913574 C 10.930000305175781 11.839999198913574 11.063333511352539 11.806666374206543 11.170000076293945 11.739999771118164 C 11.276666641235352 11.679999351501465 11.373332977294922 11.59666633605957 11.460000038146973 11.489999771118164 L 11.730000495910645 11.699999809265137 C 11.510000228881836 12.033332824707031 11.183333396911621 12.199999809265137 10.75 12.199999809265137 M 10.690000534057617 9.879999160766602 C 10.516666412353516 9.879999160766602 10.366666793823242 9.94333267211914 10.239999771118164 10.069999694824219 C 10.119999885559082 10.203332901000977 10.046667098999023 10.386666297912598 10.020000457763672 10.619999885559082 L 11.319999694824219 10.619999885559082 L 11.319999694824219 10.59000015258789 C 11.30666732788086 10.363332748413086 11.24333381652832 10.186666488647461 11.130000114440918 10.059999465942383 C 11.023333549499512 9.9399995803833 10.876667022705078 9.879999160766602 10.690000534057617 9.879999160766602 ZM 13.65999984741211 9.959999084472656 C 13.59333324432373 9.946666717529297 13.519999504089355 9.9399995803833 13.4399995803833 9.9399995803833 C 13.146666526794434 9.9399995803833 12.949999809265137 10.063333511352539 12.84999942779541 10.309999465942383 L 12.84999942779541 12.149999618530273 L 12.399999618530273 12.149999618530273 L 12.399999618530273 9.559999465942383 L 12.84000015258789 9.559999465942383 L 12.84000015258789 9.859999656677246 C 12.986666679382324 9.626666069030762 13.19333267211914 9.50999927520752 13.460000038146973 9.50999927520752 C 13.546666145324707 9.50999927520752 13.613332748413086 9.523332595825195 13.65999984741211 9.549999237060547 L 13.65999984741211 9.959999084472656 Z" transform="matrix(1, 0, 0, 1, 63.75, 105.13999938964844)" style="white-space: pre; fill: rgb(255, 255, 255); stroke: rgb(0, 0, 0); stroke-width: 0; stroke-opacity: 0.73; fill-opacity: 0.88;"/><path d="M 79 125.860001 H 118.66 V 131.85 H 79 V 125.860001 Z" class="cls-37" style="fill: rgb(146, 160, 184);"/><path d="M 79 125.860001 H 118.66 V 131.85 H 79 V 125.860001 Z" class="cls-17" style="fill: rgb(85, 69, 150);"/><path d="M 114.779999 125.860001 H 116.529999 V 131.85 H 114.779999 V 125.860001 Z" class="cls-12" style="fill: rgb(231, 236, 237);"/><path d="M 112.339996 125.860001 H 113.429996 V 131.85 H 112.339996 V 125.860001 Z" class="cls-12" style="fill: rgb(231, 236, 237);"/><path d="M 82.870003 125.860001 H 84.620003 V 131.85 H 82.870003 V 125.860001 Z" class="cls-12" style="fill: rgb(231, 236, 237);"/><path d="M 80.540001 125.860001 H 81.630001 V 131.85 H 80.540001 V 125.860001 Z" class="cls-12" style="fill: rgb(231, 236, 237);"/><path d="M 79.540001 117.879997 H 118.82 V 124.909997 H 79.540001 V 117.879997 Z" class="cls-12" style="fill: rgb(231, 236, 237);"/><path d="M 80.239998 117.82 H 118.769997 V 118.26 H 80.239998 V 117.82 Z" class="cls-3" style="fill: rgb(255, 255, 255);"/><path d="M 80.239998 118.650002 H 118.769997 V 119.090002 H 80.239998 V 118.650002 Z" class="cls-3" style="fill: rgb(255, 255, 255);"/><path d="M 80.239998 119.480003 H 118.769997 V 119.920003 H 80.239998 V 119.480003 Z" class="cls-3" style="fill: rgb(255, 255, 255);"/><path d="M 80.239998 120.300003 H 118.769997 V 120.740003 H 80.239998 V 120.300003 Z" class="cls-3" style="fill: rgb(255, 255, 255);"/><path d="M 80.239998 121.129997 H 118.769997 V 121.569997 H 80.239998 V 121.129997 Z" class="cls-3" style="fill: rgb(255, 255, 255);"/><path d="M 80.239998 121.959999 H 118.769997 V 122.399999 H 80.239998 V 121.959999 Z" class="cls-3" style="fill: rgb(255, 255, 255);"/><path d="M 80.239998 122.790001 H 118.769997 V 123.230001 H 80.239998 V 122.790001 Z" class="cls-3" style="fill: rgb(255, 255, 255);"/><path d="M 80.239998 123.620003 H 118.769997 V 124.060003 H 80.239998 V 123.620003 Z" class="cls-3" style="fill: rgb(255, 255, 255);"/><path d="M 80.239998 124.449997 H 118.769997 V 124.889997 H 80.239998 V 124.449997 Z" class="cls-3" style="fill: rgb(255, 255, 255);"/><path class="cls-38" d="M118.94,124.39H81a.74.74,0,0,1-.74-.74V119a.74.74,0,0,1,.74-.74h37.94a.74.74,0,0,0,.74-.74h0a.74.74,0,0,0-.74-.74H79.65a.74.74,0,0,0-.74.74v7.64a.74.74,0,0,0,.74.74h39.29a.74.74,0,0,0,.74-.74h0A.74.74,0,0,0,118.94,124.39Z" style="fill: rgb(193, 223, 196);"/><path d="M 88.97000122070312 120.73999786376953 L 88.97000122070312 129.25 L 91.2300033569336 126.94000244140625 L 93.4800033569336 129.07000732421875 L 93.4800033569336 120.73999786376953 L 88.97000122070312 120.73999786376953 Z" class="cls-13" style="fill: rgb(250, 208, 197);"/><path class="cls-2" d="M185.78,136.45s4.29,19.48-11.44,19.48H153.46s5.43,30.1,5.43,59.32H147.16l-12.3-61.09s-5.15-17.71,14-17.71S185.35,136,185.78,136.45Z" style="fill: rgb(22, 26, 27); opacity: 0.2;"/><path class="cls-10" d="M219.82,136.45s4.29,19.48-11.44,19.48H187.5s5.43,30.1,5.43,59.32H181.2l-12.3-61.09s-5.15-17.71,14-17.71S219.39,136,219.82,136.45Z" style="fill: rgb(91, 197, 242);"/><path class="cls-9" d="M160,210.85a1.32,1.32,0,0,0-1.3-1.35l-15.42.09c-5.51,0-10.21,2.93-10.21,8.62,0,0,25.63.19,25.63.19a1.32,1.32,0,0,0,1.3-1.35Z" style="fill: rgb(46, 40, 104);"/><path class="cls-9" d="M193.44,210.85a1.32,1.32,0,0,0-1.3-1.35l-15.42.09c-5.51,0-10.21,2.93-10.21,8.62,0,0,25.63.19,25.63.19a1.32,1.32,0,0,0,1.3-1.35Z" style="fill: rgb(46, 40, 104);"/><path class="cls-12" d="M102.47,162.36h-19a3.35,3.35,0,0,0-3.3,3.46v6.37a3.28,3.28,0,0,0,3.3,3.38h19a3.33,3.33,0,0,0,3.3-3.38v-6.37A3.4,3.4,0,0,0,102.47,162.36Z" style="fill: rgb(231, 236, 237);"/><path d="M 97.610001 168.960007 L 97.690002 168.960007" class="cls-39" style="fill: none; stroke-linecap: round; stroke-linejoin: round; stroke: rgb(220, 222, 232); stroke-width: 1.61px;"/><path d="M 102.649997 168.960007 A 3.7 3.7 0 0 1 98.949997 172.660007 A 3.7 3.7 0 0 1 95.249997 168.960007 A 3.7 3.7 0 0 1 98.949997 165.260007 A 3.7 3.7 0 0 1 102.649997 168.960007 Z" class="cls-3" style="fill: rgb(255, 255, 255);"/><path d="M 90.680003 168.960007 A 3.7 3.7 0 0 1 86.980003 172.660007 A 3.7 3.7 0 0 1 83.280003 168.960007 A 3.7 3.7 0 0 1 86.980003 165.260007 A 3.7 3.7 0 0 1 90.680003 168.960007 Z" class="cls-3" style="fill: rgb(255, 255, 255);"/><path class="cls-12" d="M100.34,169.77a.8.8,0,0,1-.57-.24.82.82,0,0,1-.24-.57.84.84,0,0,1,.24-.56.81.81,0,0,1,1.38.56.81.81,0,0,1-.23.57A.8.8,0,0,1,100.34,169.77Z" style="fill: rgb(231, 236, 237);"/><path class="cls-12" d="M97.61,169.77a.8.8,0,0,1-.58-.24.82.82,0,0,1-.24-.57.84.84,0,0,1,.24-.56.83.83,0,0,1,1.15,0,.84.84,0,0,1,.24.56.82.82,0,0,1-.24.57A.8.8,0,0,1,97.61,169.77Z" style="fill: rgb(231, 236, 237);"/><path d="M 92.5 162.360001 H 93.2 V 175.570001 H 92.5 V 162.360001 Z" class="cls-1" style="fill: rgb(25, 97, 172);"/><path d="M 261.900015 151.020004 H 266.720015 A 2.51 2.51 0 0 1 269.230015 153.530004 V 158.560004 A 2.51 2.51 0 0 1 266.720015 161.070004 H 261.900015 A 2.51 2.51 0 0 1 259.390015 158.560004 V 153.530004 A 2.51 2.51 0 0 1 261.900015 151.020004 Z" class="cls-11" style="fill: rgb(243, 155, 155);"/><path d="M 290.789999 151.020004 H 295.609999 A 2.51 2.51 0 0 1 298.119999 153.530004 V 158.560004 A 2.51 2.51 0 0 1 295.609999 161.070004 H 290.789999 A 2.51 2.51 0 0 1 288.279999 158.560004 V 153.530004 A 2.51 2.51 0 0 1 290.789999 151.020004 Z" class="cls-11" style="fill: rgb(243, 155, 155);"/><path class="cls-38" d="M253.28,155.55v11.77h0A8.32,8.32,0,0,0,261.5,175v0h36v-.12a8.31,8.31,0,0,0,7.16-7.56h0V155.55Z" style="fill: rgb(129, 190, 190);"/><path class="cls-19" d="M261.53,175v0a8.29,8.29,0,0,1-8.15-7.64h0v-.77h0v46.58s-.25,4.48,3.64,4.48h44c3.33,0,3.62-3.29,3.64-4.23h0V166.55h0v.77h0a8.3,8.3,0,0,1-7.13,7.56V175" style="fill: rgb(151, 222, 222);"/><g class="cls-7" style="opacity: 0.2;"><path class="cls-9" d="M297.49,174.88V175H261.66v0a8.31,8.31,0,0,1-8.16-7.64h0v2.81h0a8.31,8.31,0,0,0,8.16,7.64v0h35.83v-.12a8.3,8.3,0,0,0,7.13-7.56h0v-2.81h0A8.3,8.3,0,0,1,297.49,174.88Z" style="fill: rgb(46, 40, 104);"/></g><path class="cls-3" d="M266.52,170a2.5,2.5,0,1,0-5,0s0,0,0,.06h0v12.16a2.5,2.5,0,0,0,5,0V170h0Z" style="fill: rgb(255, 255, 255);"/><path class="cls-40" d="M268.94,174.63h-9.77v6h4.36V182h.9v-1.31h4.51Zm-.9,5.11h-3.61v-1.55h-.9v1.55h-3.46v-4.21h8Z" style="fill: rgb(250, 213, 190);"/><path class="cls-3" d="M295.7,170a2.5,2.5,0,1,0-5,0V170h0v12.16a2.5,2.5,0,0,0,5,0V170h0S295.7,170,295.7,170Z" style="fill: rgb(255, 255, 255);"/><path class="cls-40" d="M298.13,174.57h-9.78v6h4.36v1.31h.9v-1.31h4.52Zm-.9,5.12h-3.62v-1.55h-.9v1.55h-3.46v-4.21h8Z" style="fill: rgb(250, 213, 190);"/></svg>